/* XPM */
static char *_c96c5d39d3d4a698cd124bd9abf7333ZMlCs9gtNpUKrTzf[] = {
/* columns rows colors chars-per-pixel */
"64 64 220 2 ",
"   c #060101",
".  c #090304",
"X  c #080709",
"o  c #0C0709",
"O  c #0C0A0B",
"+  c #120D0D",
"@  c #0A0C12",
"#  c #160F10",
"$  c #0C1317",
"%  c #0D141A",
"&  c #0E191E",
"*  c #161213",
"=  c #1A1516",
"-  c #13151A",
";  c #1B1719",
":  c #1E1A1B",
">  c #211C1D",
",  c #25201F",
"<  c #0E1720",
"1  c #0F1D25",
"2  c #131D25",
"3  c #191E26",
"4  c #141F2A",
"5  c #231F21",
"6  c #16212A",
"7  c #19232C",
"8  c #162532",
"9  c #1B2632",
"0  c #152936",
"q  c #1B2A34",
"w  c #132D3B",
"e  c #1B2D3C",
"r  c #17303F",
"t  c #252223",
"y  c #2A2626",
"u  c #22272D",
"i  c #2D272A",
"p  c #2E2B2D",
"a  c #312D2E",
"s  c #222732",
"d  c #232A33",
"f  c #322E32",
"g  c #20323F",
"h  c #343234",
"j  c #393637",
"k  c #363539",
"l  c #39363A",
"z  c #3D3A3E",
"x  c #433F3D",
"c  c #153342",
"v  c #1D3545",
"b  c #1A3847",
"n  c #1E3748",
"m  c #17394A",
"M  c #1C3A4B",
"N  c #1F3B50",
"B  c #223546",
"V  c #213C4E",
"C  c #2A3C4A",
"Z  c #333E46",
"A  c #3E3C41",
"S  c #213E51",
"D  c #413E43",
"F  c #1C4151",
"G  c #3D4248",
"H  c #244255",
"J  c #2B4257",
"K  c #23455A",
"L  c #2C4458",
"P  c #22495E",
"I  c #334C5D",
"U  c #3F535D",
"Y  c #244661",
"T  c #244C64",
"R  c #2A4C63",
"E  c #264F6A",
"W  c #27526A",
"Q  c #2B536C",
"!  c #3B5263",
"~  c #295672",
"^  c #2C5A76",
"/  c #2D5D7E",
"(  c #355B73",
")  c #315E7B",
"_  c #2E627E",
"`  c #31617D",
"'  c #454244",
"]  c #45454A",
"[  c #49474A",
"{  c #4D494A",
"}  c #544F4F",
"|  c #464C52",
" . c #4C4D53",
".. c #44455B",
"X. c #43485F",
"o. c #514E55",
"O. c #4A525A",
"+. c #565456",
"@. c #55535B",
"#. c #5D5B5C",
"$. c #605A5C",
"%. c #454D66",
"&. c #464F69",
"*. c #4F4E68",
"=. c #504F68",
"-. c #4A5B66",
";. c #4F536D",
":. c #5B5B67",
">. c #5C5D66",
",. c #51546F",
"<. c #525670",
"1. c #585774",
"2. c #565A73",
"3. c #5A5875",
"4. c #5E5C78",
"5. c #625F6C",
"6. c #605E7A",
"7. c #5A606A",
"8. c #4D6071",
"9. c #566375",
"0. c #676463",
"q. c #63636E",
"w. c #6D6B6B",
"e. c #716D6C",
"r. c #73706F",
"t. c #656373",
"y. c #686674",
"u. c #6A6976",
"i. c #64627C",
"p. c #69667E",
"a. c #66697D",
"s. c #6C6A7B",
"d. c #706E7E",
"f. c #787578",
"g. c #827D7E",
"h. c #2C5E80",
"j. c #2E6587",
"k. c #326483",
"l. c #366788",
"z. c #346A8C",
"x. c #336D92",
"c. c #357195",
"v. c #35749A",
"b. c #3B759B",
"n. c #39799C",
"m. c #3B7DA6",
"M. c #3C7DA4",
"N. c #4D7B97",
"B. c #676580",
"V. c #686680",
"C. c #6D6C82",
"Z. c #716F83",
"A. c #6E7484",
"S. c #737185",
"D. c #75738A",
"F. c #787B88",
"G. c #7C7A8B",
"H. c #7D7D92",
"J. c #817F88",
"K. c #817F93",
"L. c #3E84AC",
"P. c #3F87B1",
"I. c #50809F",
"U. c #7F808D",
"Y. c #4183AB",
"T. c #4484A9",
"R. c #4187B1",
"E. c #428BB6",
"W. c #468DB9",
"Q. c #4D90BA",
"!. c #5494BB",
"~. c #6288A0",
"^. c #589BC3",
"/. c #629EC1",
"(. c #5EA3C9",
"). c #6BA6CD",
"_. c #77AECE",
"`. c #898687",
"'. c #938F8F",
"]. c #848292",
"[. c #898896",
"{. c #959292",
"}. c #9C9999",
"|. c #A19E9E",
" X c #A19FA0",
".X c #A7A5A5",
"XX c #B1AFAE",
"oX c #B4B2B3",
"OX c #B9B7B6",
"+X c #BDBCBC",
"@X c #C2BEBD",
"#X c #C1C1BE",
"$X c #8FB7CD",
"%X c #86BAD7",
"&X c #99C4D9",
"*X c #AECBDC",
"=X c #92C4E4",
"-X c #AACFE0",
";X c #BCD6E6",
":X c #C4C3C3",
">X c #C8C4C4",
",X c #CDCCCB",
"<X c #D1CFCE",
"1X c #D2D1CF",
"2X c #D2CFD0",
"3X c #D4D3D3",
"4X c #D8D7D6",
"5X c #DDDCDB",
"6X c #E1DFDE",
"7X c #E3E1DF",
"8X c #CADAE4",
"9X c #D9ECF4",
"0X c #E4E3E3",
"qX c #E9E7E6",
"wX c #EBEBEA",
"eX c #F1EFEF",
"rX c #F1F0EF",
"tX c #F4F3F3",
"yX c #F8F8F6",
"uX c #FDFDFD",
/* pixels */
"$ $ $ $ $ $ $ $ $ $ $ & c m m m m m m m m m m m m m m c & $ $ $ $ $ $ & c S ;.3.3.3.3.3.3.3.3.3.3.3.3.;.S m m m m m m c & $ $ $ ",
"$ $ $ % & & & & & < 3 7 B S S S S S S S S S S S M m m c 1 & & & & & & 2 n J ,.3.3.3.3.3.3.3.3.3.3.3.3.,.J S S S M m m c 1 & % $ ",
"$ $ $ & w c c c c n X.*.;.;.;.;.;.;.;.;.;.;.;.%.V m m m c c c c c c c n %.,.1.3.3.3.3.3.3.3.3.3.3.3.3.1.,.;.;.%.S m m m c w & $ ",
"$ % & 1 c m m M S J ,.3.3.3.3.3.3.3.3.3.3.3.3.,.J V M m m m m m m M S J ,.3.3.3.3.3.3.3.3.3.3.3.3.3.3.3.3.3.3.;.S m m m m c & $ ",
"$ & w c m m m V %.,.1.3.3.3.3.3.3.3.3.3.3.3.3.1.,.%.V m m m m m m V %.,.1.3.3.3.3.3.3.3.3.3.3.3.3.3.3.3.3.3.3.;.S m m m m c & $ ",
"$ & c m m M V J ,.3.3.3.3.3.3.3.3.3.3.3.3.3.3.3.3.,.J V M m m M V J ,.3.3.3.3.3.3.3.3.3.3.3.3.3.3.3.3.3.3.3.3.;.B c m m m c & $ ",
"$ & c m m S %.,.1.3.3.3.3.3.3.3.3.3.3.3.3.3.3.3.3.1.,.%.M m m V &.,.1.3.3.3.3.3.3.3.3.3.3.3.3.3.3.3.3.3.3.3.3.*.7 1 c m m c & $ ",
"$ & w c m S ;.3.3.3.3.3.3.3.3.3.3.3.3.3.3.3.3.3.3.3.3.<.L H H J &.,.1.3.3.3.3.3.3.3.3.3.3.3.3.3.3.3.3.3.3.3.3.*.3 & c m c w & $ ",
"$ % & 1 c S ;.3.3.3.3.3.3.3.3.3.3.3.3.3.3.3.4.C.C.C.C.s.a.a.a.9.L J ,.3.3.3.3.3.3.3.3.3.3.3.3.3.3.3.3.3.3.3.3.*.3 & c c 1 & % $ ",
"$ $ $ & c S ;.3.3.3.3.3.3.3.3.3.3.3.3.3.3.1.i.s.@.o.o.o.o.o.@.u.I S ;.3.3.3.3.3.3.3.3.3.3.3.3.3.3.3.3.3.3.1.,.%.7 1 c c 1 & % $ ",
"$ $ $ & c S ;.3.3.3.3.3.3.3.3.3.3.3.3.4.4.4.p.:.y : : : ; : y @.I H <.4.3.3.3.3.3.3.3.3.3.3.3.3.3.3.3.3.3.,.J M c c m m c w & $ ",
"$ % & 1 c S ;.3.3.3.3.3.3.3.3.3.3.V.C.s.u.u.y.z +           O l -.-.y.s.S.C.3.3.3.3.3.3.3.3.3.3.3.3.3.1.,.%.V m m m m m m c 1 & ",
"$ & w c m S ;.3.3.3.3.3.3.3.3.3.4.S.y.A f f p * .             * p h h A q.D.4.3.3.3.3.3.3.3.3.3.3.3.3.,.J V M m m m m m m m c c ",
"& 1 c m m S ;.3.3.3.3.3.3.3.3.4.i.S.:.: O O O O O O O O O O O O O O O : @.S.i.3.3.3.3.3.3.3.3.3.3.1.,.%.V m m m m m m m m m m m ",
"c c m m m S ;.3.3.3.3.3.3.3.C.G.y.@.k O     + [ 0.w.f.f.f.e.w.{ +     O f @.y.Z.i.3.3.3.3.3.3.3.3.,.J M M m m m m m m m m m m m ",
"m m m m m S ;.3.3.3.3.3.1.4.K.J.l * O .     : `.#X,X5X0X7X1X>X`.>     . O * k d.C.3.3.3.3.3.3.1.,.&.J S S S S V c c m m m m m m ",
"m m m m m S ;.3.3.3.3.3.4.i.].f.t o + # # # p {.1X5XtXyXtX6X3X}.a * * # + o t u.S.i.3.3.3.3.3.,.J J &.;.;.;.;.%.7 1 c m m m m m ",
"m m m m m S %.,.1.3.3.V.G.t.@.z * y +.g.`.'.|.<XwXtXyXuXyXeXwX2X|.'.`.g.$.a = A  .5.i.4.3.1.*.%.J J ,.3.3.3.3.*.s 6 w c m m m m ",
"m m m m m M S J ,.3.3.D.].z O o o ' '.<XqXrXyXuXuXuXuXuXuXuXuXyXyXtXqX<X}.{ O X O l C.i.4.=.s s %.,.1.3.3.3.3.1.*...6 1 c m m m ",
"m m m m m m c n %.,.3.D.].k     o ' {.3XwXyXuXuXuXuXuXuXuXuXuXuXyXtXwX3X|.#.: O o p u.C.a.;.s s *.3.3.3.3.3.3.3.3.*.s 7 c m c c ",
"m m m m m c 1 6 n J <.D.].j     o { |.7XyXuXuXuXuXuXuXuXuXuXuXyXwX0X0X3XOX{.0.h * * k G -.8.,.*.1.3.3.3.3.3.3.3.3.1.*.%.M c 1 & ",
"c c m M S n 6 1 w B 2.H.[.h   . + } .XwXuXuXuXuXuXuXuXuXuXuXyXtX5X4X4X3X>XoX'.{ : .     z A.D.V.3.3.3.3.3.3.3.3.3.3.3.,.J n < $ ",
"& 1 c S &.%.n w 1 d 9.F.F.p o = a e.OXrXuXuXuXuXuXuXuXuXuXyXyXwX3X,X:XoX.X{.f.x ; .     k ].[.G.6.3.3.3.3.3.3.3.3.3.3.1.,.X.3 $ ",
"$ < n J ,.,.L n 7 Z | l f * ; { {.@X6XyXuXuXuXuXuXuXuXuXyX0X0X3XoX}.f.' l h y = O       = l ' q.V.4.3.3.3.3.3.3.3.3.3.3.3.*.3 $ ",
"$ 3 X.,.1.1.,.%.J U h     . t 0.>XqXtXuXuXuXuXuXuXuXyXyXwX<X>XOX{.f. .; O @ @ @ O X         . { ].H.C.3.3.3.3.3.3.3.3.3.3.*.3 $ ",
"$ 3 *.3.3.3.3.,.I -.h     . t w.,XeXyXuXuXuXuXuXuXyX0X5X,X X'.`.w.7.| q 0 w r w 0 4 O         z J.[.G.4.3.3.3.3.3.3.3.3.3.*.s 3 ",
"$ 3 *.3.3.3.3.1.4.a.k     . t r.4XyXuXuXuXuXuXuXuXtX:XoX{.' i y t u B Q _ z.c.j./ Y 1 X       * p A y.i.3.3.3.3.3.3.3.3.3.1.*.*.",
"$ 3 *.3.3.3.3.3.i.C.z     . y r.4XyXuXuXuXuXuXyXyX0X.X`.w.u & & 2 0 K z.n.L.R.M.b.h.e < % % % @ . * @.C.C.i.3.3.3.3.3.3.3.3.3.3.",
"$ 3 *.3.3.3.3.3.i.S.A     . t w.1XtXyXuXuXuXuXtXwX3Xf.o.| C B S Y E _ n.L.L.R.L.m.x.T M v n n 8 X O A t.d.C.3.3.3.3.3.3.3.3.3.3.",
"$ 3 *.3.3.3.3.3.i.S.] O o o , 0.@X0XrXuXuXuXyXwX0X+X[ ; 9 Q k.z.M.L.L.P.R.E.E.E.E.m.z.k.` ` ) S @   + t ' s.4.3.3.3.3.3.3.3.3.3.",
"$ 3 *.3.3.3.3.3.4.C.y.o.z * = ' g.XX4XyXyXyXwX3X,X.Xj X 4 k.b.T.(.(.^.W.E.E.E.E.E.R.M.b.b.x.l.K @     o a u.4.3.3.3.3.3.3.3.3.3.",
"$ 3 X.,.1.3.3.3.3.i.a.Z.q.y O > z f.+XrXtXwX5X:XOX}.h X 8 z.T.!.%X%X).Q.E.E.E.E.E.R.Y.Y.M.c.z.K @     o a y.4.1.3.3.3.3.3.1.,.;.",
"$ < n J ,.3.3.3.3.<.I 8.F.h . o * } .XwXwX0X3XoX|.`.f @ q N.!.).=X=X).Q.E.E.E.E.E.E.E.E.L.c.l.P $ o   o y :.9.i.4.3.3.3.3.,.J S ",
"$ & c S %.;.;.;.;.&.J 8.U.l     o [ }.5X0X5X,X`.#. .Z B ! $X&X%X_.).^.W.E.E.E.E.E.E.E.E.L.c.z.W 0 4 - o ; G q.S.C.3.3.1.,.%.n c ",
"$ & c M S S S S S J ;.A.].h     o ' {.3X5X5X:X$.y u I ( N.8X9X-X/.!.Q.E.E.E.E.E.E.E.E.E.L.c.z.^ F n 4 o X ; k >.S.3.3.,.J n 2 & ",
"$ & c m m m m M M J <.D.].[ > * O z g.OX,X4X:X+.* - R l.~.8X9X-X!.E.E.E.E.E.E.E.E.E.E.E.L.c.z./ P H 8 o   o :  .p.<.;.%.S c & $ ",
"$ & c m m m m V %.,.1.i.D.G.d.@.; ; j +.{.:X+Xo.+ % R l.I.*X;X$X!.E.E.E.E.E.E.E.E.E.E.E.L.c.x./ T H 8 .     ;  .-.H S S M c & $ ",
"$ & c m m M V J ,.3.3.3.6.D.[.f.>   o : r.+X+Xo.+ % R l.I.$X-X%XQ.E.E.E.E.E.E.E.E.E.E.E.L.c.x.h.T H 8 . . . ;  .-.b m m c w & $ ",
"$ & c m m V %.,.1.3.3.3.3.6.K.J.D 5 * * #.}.|.' O % R k.N._.%X_.Q.E.E.E.E.E.E.E.E.E.R.R.m.c.x.h.T H 8 o . . ; o.| 6 c c 1 & % $ ",
"& 1 c M V J ,.3.3.3.3.3.3.3.V.D.S.u.] * > j j ; o @ V T _ Q.^.!.E.E.E.E.E.E.E.E.E.L.m.v.v.x.x./ T H 9 o . . ; o.] 2 c c & $ $ $ ",
"c c m S %.,.1.3.3.3.3.3.3.3.3.4.B.S.@.= o o o .   @ v K ~ T.E.E.E.E.E.E.E.E.E.E.E.L.v.x.x.x.z.) R J 9 o . . > o.] 2 c c & $ $ $ ",
"m M S J ,.3.3.3.3.3.3.3.3.3.3.3.4.C.y.' t + . .   O q v T n.Y.Y.E.E.E.E.E.E.E.Y.Y.M.v.x.z.j.k.Q V B 3 o + y ' >.G 6 c c 1 & % $ ",
"m S %.,.1.3.3.3.3.3.3.3.3.3.3.3.3.6.i.C.>.p O     . O $ 0 ` c.n.R.E.E.E.E.E.R.M.v.x.z.z.k.W E n < @ X O y >.-.I V c m m c w & $ ",
"m S ;.3.3.3.3.3.3.3.3.3.3.3.3.3.3.3.3.i.u.z * o       . 2 ^ z.b.Y.E.E.E.E.E.Y.n.x.l.l.l.) E P c @ .   O a 7.H m m m m m m c 1 & ",
"m S ;.3.3.3.3.3.3.3.3.3.3.3.3.3.3.3.3.6.Z.5.[ t o       2 R ` z.M.Y.Y.Y.Y.Y.M.v.x.l.k.) ~ T P e @     O p  .n m m m m m m m c c ",
"m S %.,.1.3.3.3.3.3.3.3.3.3.3.3.3.3.3.3.i.i.s. .* o     % S T ~ z.x.x.c.c.c.x.x.z.k.~ T P K K e @     + p | n m m m m m m m m m ",
"m M S J ,.3.3.3.3.3.3.3.3.3.3.3.3.3.3.3.3.1.i.>.p : O   $ n H R ) ` k.k.j.k.k.k.k./ T H S S V q O o + t A -.M m m m m m m m m m ",
"c c m S ;.3.3.3.3.3.3.3.3.3.3.3.3.3.3.3.3.3.i.d.q.@.t . O 6 q e V H R ~ ^ ^ ^ ^ ^ W v q q 9 9 2 o O p  .7.-.H M c c m m m m m m ",
"& 1 c S ;.3.3.3.3.3.3.3.3.3.3.3.3.3.3.3.3.3.3.i.i.p.' * O X X X O % 0 K Y Y Y Y Y N < O X X o o + : @.t.4.2.,.%.7 1 c m m m m m ",
"$ & c S %.;.;.,.1.3.3.3.3.3.3.3.3.3.3.3.3.3.3.3.1.i.>.D f O       X 2 g B B B B B q $ .     . = h D y.6.1.3.3.*.s 6 w c m m c c ",
"$ & c M S S S J ,.3.3.3.3.3.3.3.3.3.3.3.3.3.3.3.3.i.Z.s.>.:       . @ 2 2 2 2 2 2 - X         p q.s.C.4.3.3.3.1.*...6 1 c c 1 & ",
"$ & c m m m c n %.,.1.3.3.3.3.3.3.3.3.3.3.3.3.3.3.3.4.i.C.z * = ; * + o o . . . . O * ; ; ; ; ' a.i.4.3.3.3.3.3.3.*.s 7 c c & $ ",
"$ & c m m c 1 2 n L ,.3.3.3.3.3.3.3.3.3.3.3.3.3.3.3.3.3.V.q.] ] @.@.h + . . . .   = G | | O.:.y.i.3.3.3.3.3.3.3.3.1.*.%.M c & $ ",
"$ & w c m c 1 1 w n %.,.1.3.3.3.3.3.3.3.3.3.3.3.3.3.3.1.1.:. . .s.G.#.#     . .   t O.-.-.8.C.C.6.3.3.3.3.3.3.3.3.3.3.,.J n < $ ",
"$ % & 1 c m c w 1 2 n L ,.3.3.3.3.3.3.3.3.3.3.3.3.3.3.*.d d X.,.i.].f.l i i i i i ] ! L ;.2.3.3.3.3.3.3.3.3.3.3.3.3.3.1.,.X.3 $ ",
"$ $ $ & c m m c 1 1 w n %.;.;.,.1.3.3.3.3.3.3.1.,.;.*...u s *.3.4.C.D.s.u.s.s.u.s.a.! L ,.3.3.3.3.3.3.3.3.3.3.3.3.3.3.3.3.*.7 & ",
"$ $ $ & c m m m c w 1 2 n S S J ,.3.3.3.3.3.3.,.J n 7 s ..*.1.3.3.6.i.V.V.V.p.p.V.i.<.,.1.3.3.3.3.3.3.3.3.3.3.3.3.3.3.3.3.;.B c ",
"$ % & 1 c m m m m c 1 1 c M M J ,.3.3.3.3.3.3.,.J n 2 7 *.3.3.3.3.3.3.3.3.3.3.3.3.3.3.3.3.3.3.3.3.3.3.3.3.3.3.3.3.3.3.3.3.;.S m ",
"$ & w c m m m m m m c c m S %.,.1.3.3.3.3.3.3.1.,.%.n n ;.3.3.3.3.3.3.3.3.3.3.3.3.3.3.3.3.3.3.3.3.3.3.3.3.3.3.3.3.3.3.3.3.;.S m ",
"$ & c m m m m m m m m m m S ;.3.3.3.3.3.3.3.3.3.3.,.J J &.,.1.3.3.3.3.3.3.3.3.3.3.3.3.1.,.,.1.3.3.3.3.3.3.3.3.3.3.3.3.3.3.;.S m ",
"$ & c m m m m m m m m m m S ;.3.3.3.3.3.3.3.3.3.3.1.,.&.J J ,.3.3.3.3.3.3.3.3.3.3.3.3.,.J J ,.3.3.3.3.3.3.3.3.3.3.3.3.3.3.;.S m ",
"$ & w c m m m m m m m m m S %.,.1.3.3.3.3.3.3.3.3.1.,.&.M M %.,.1.3.3.3.3.3.3.3.3.1.,.%.n n %.,.1.3.3.3.3.3.3.3.3.3.3.1.,.%.S m ",
"$ % & 1 c m m m m m m m m M V J ,.3.3.3.3.3.3.3.3.,.J V M M V J ,.3.3.3.3.3.3.3.3.,.J n 2 2 n J ,.3.3.3.3.3.3.3.3.3.3.,.J V M m ",
"$ $ $ & c m m m m m m m m m m S ;.3.3.3.3.3.3.3.3.;.S m m m m S ;.3.3.3.3.3.3.3.3.;.S c & & c S ;.3.3.3.3.3.3.3.3.3.3.;.S m m m "
};
