/* XPM */
static char *f7c97f934f934db68415899a2a645ab4HheybqsYiCYvlove[] = {
/* columns rows colors chars-per-pixel */
"64 64 5 1 ",
"  c #0C1317",
". c #17394A",
"X c #5A5875",
"o c #A84111",
"O c #E17B50",
/* pixels */
"            ..............OOOOOOOOOOOOXXXXXXXXXXXXXX........    ",
"            ..............OOOOOOOOOOOOXXXXXXXXXXXXXX........    ",
"    ......XXXXXXXXXXOOOOOOOOOOOOOOOOOOOOOOOOXXXXXXXXXXXX......  ",
"    ......XXXXXXXXXXOOOOOOOOOOOOOOOOOOOOOOOOXXXXXXXXXXXX......  ",
"  ......XXXXXXXXOOOOOOOOOOOOOOOOOOOOOOOOOOOOOOOOXXXXXXXX......  ",
"  ......XXXXXXXXOOOOOOOOOOOOOOOOOOOOOOOOOOOOOOOOXXXXXXXX......  ",
"  ....XXXXXXXXOOOOOOOOOOooooooooooooooooOOOOOOOOOOXXXXXX  ....  ",
"  ....XXXXXXXXOOOOOOOOOOooooooooooooooooOOOOOOOOOOXXXXXX  ....  ",
"    ..XXXXXXOOOOOOOOooooooooooooooooooooooooOOOOOOOOXXXX  ..    ",
"    ..XXXXXXOOOOOOOOooooooooooooooooooooooooOOOOOOOOXXXX  ..    ",
"    ..XXXXOOOOOOooooooooooooooooooooooooooooooooOOOOOO........  ",
"    ..XXXXOOOOOOooooooooooooooooooooooooooooooooOOOOOO........  ",
"  ....XXOOOOOOoooooooooooo            ooooooooooooOOOOOO........",
"  ....XXOOOOOOoooooooooooo            ooooooooooooOOOOOO........",
"......OOOOOOoooooooooo                    ooooooooooOOOOOO......",
"......OOOOOOoooooooooo                    ooooooooooOOOOOO......",
"......OOOOoooooooooo                        ooooooooooOOOO......",
"......OOOOoooooooooo                        ooooooooooOOOO......",
"....OOOOoooooooooo                            ooooooooooOOOO....",
"....OOOOoooooooooo                            ooooooooooOOOO....",
"....OOoooooooooo                                ooooooooooOO..  ",
"....OOoooooooooo                                ooooooooooOO..  ",
"  ..OOoooooooo                                    ooooooooOOXX  ",
"  ..OOoooooooo                                    ooooooooOOXX  ",
"  OOoooooooo                                        ooooooooOO  ",
"  OOoooooooo                                        ooooooooOO  ",
"  OOoooooooo                                        ooooooooOOXX",
"  OOoooooooo                                        ooooooooOOXX",
"  OOoooooo                                            ooooooOOXX",
"  OOoooooo                                            ooooooOOXX",
"  OOoooooo                                            ooooooOOXX",
"  OOoooooo                                            ooooooOOXX",
"  OOoooooo                                            ooooooOO..",
"  OOoooooo                                            ooooooOO..",
"  oooooooo                                            oooooooo  ",
"  oooooooo                                            oooooooo  ",
"  oooooooo                                            oooooooo  ",
"  oooooooo                                            oooooooo  ",
"  oooooooo                                            oooooooo  ",
"  oooooooo                                            oooooooo  ",
"..oooooooo                                            oooooooo  ",
"..oooooooo                                            oooooooo  ",
"..oooooooo                                            oooooooo  ",
"..oooooooo                                            oooooooo  ",
"..oooooooo                                            oooooooo..",
"..oooooooo                                            oooooooo..",
"..oooooooo                                            oooooooo..",
"..oooooooo                                            oooooooo..",
"  oooooooo                                            oooooooo..",
"  oooooooo                                            oooooooo..",
"  oooooooo                                            oooooooo  ",
"  oooooooo                                            oooooooo  ",
"  oooooooo                                            oooooooo  ",
"  oooooooo                                            oooooooo  ",
"  oooooooo                                            oooooooo  ",
"  oooooooo                                            oooooooo  ",
"  oooooooo                                            oooooooo..",
"  oooooooo                                            oooooooo..",
"  oooooooo                                            oooooooo..",
"  oooooooo                                            oooooooo..",
"  oooooooo                                            oooooooo..",
"  oooooooo                                            oooooooo..",
"  oooooooo    ..XXXXXXXXXX......XXXXXXXXXX..  ..XX    oooooooo..",
"  oooooooo    ..XXXXXXXXXX......XXXXXXXXXX..  ..XX    oooooooo.."
};
