/* XPM */
static char *_8322b1fdf914a97d43371133ff39a79HoHjPPiuJXWp19vC[] = {
/* columns rows colors chars-per-pixel */
"64 64 8 1 ",
"  c #0C1317",
". c #211D1D",
"X c #70162B",
"o c #17394A",
"O c #5A5875",
"+ c #A84111",
"@ c #E17B50",
"# c #FAFA82",
/* pixels */
"            oooooooooooooo@@@@@@@@@@@@OOOOOOOOOOOOOOoooooooo    ",
"            oooooooooooooo@@@@@@@@@@@@OOOOOOOOOOOOOOoooooooo    ",
"    ooooooOOOOOOOOOO@@@@@@@@@@@@@@@@@@@@@@@@OOOOOOOOOOOOoooooo  ",
"    ooooooOOOOOOOOOO@@@@@@@@@@@@@@@@@@@@@@@@OOOOOOOOOOOOoooooo  ",
"  ooooooOOOOOOOO@@@@@@@@@@@@@@@@@@@@@@@@@@@@@@@@OOOOOOOOoooooo  ",
"  ooooooOOOOOOOO@@@@@@@@@@@@@@@@@@@@@@@@@@@@@@@@OOOOOOOOoooooo  ",
"  ooooOOOOOOOO@@@@@@@@@@++++++++++++++++@@@@@@@@@@OOOOOO  oooo  ",
"  ooooOOOOOOOO@@@@@@@@@@++++++++++++++++@@@@@@@@@@OOOOOO  oooo  ",
"    ooOOOOOO@@@@@@@@++++++++++++++++++++++++@@@@@@@@OOOO  oo    ",
"    ooOOOOOO@@@@@@@@++++++++++++++++++++++++@@@@@@@@OOOO  oo    ",
"    ooOOOO@@@@@@++++++++++++++++++++++++++++++++@@@@@@oooooooo  ",
"    ooOOOO@@@@@@++++++++++++++++++++++++++++++++@@@@@@oooooooo  ",
"  ooooOO@@@@@@++++++++++++............++++++++++++@@@@@@oooooooo",
"  ooooOO@@@@@@++++++++++++............++++++++++++@@@@@@oooooooo",
"oooooo@@@@@@++++++++++....................++++++++++@@@@@@oooooo",
"oooooo@@@@@@++++++++++....................++++++++++@@@@@@oooooo",
"oooooo@@@@++++++++++......++++++++++++......++++++++++@@@@oooooo",
"oooooo@@@@++++++++++......++++++++++++......++++++++++@@@@oooooo",
"oooo@@@@++++++++++....++XX++++++++++++++++....++++++++++@@@@oooo",
"oooo@@@@++++++++++....++XX++++++++++++++++....++++++++++@@@@oooo",
"oooo@@++++++++++....++++XX++++++++++++++++++....++++++++++@@oo  ",
"oooo@@++++++++++....++++XX++++++++++++++++++....++++++++++@@oo  ",
"  oo@@++++++++....++++++XX++++++++++++++++++++....++++++++@@OO  ",
"  oo@@++++++++....++++++XX++++++++++++++++++++....++++++++@@OO  ",
"  @@++++++++....++++++++++++++++++++++XX++++++++....++++++++@@  ",
"  @@++++++++....++++++++++++++++++++++XX++++++++....++++++++@@  ",
"  @@++++++++....++++++++++++++++++++++XX++++++++....++++++++@@OO",
"  @@++++++++....++++++++++++++++++++++XX++++++++....++++++++@@OO",
"  @@++++++....++++++++++++++++++++++++XX++++++++++....++++++@@OO",
"  @@++++++....++++++++++++++++++++++++XX++++++++++....++++++@@OO",
"  @@++++++....++++++++++++++++++++++++XX++++++++++....++++++@@OO",
"  @@++++++....++++++++++++++++++++++++XX++++++++++....++++++@@OO",
"  @@++++++....++++++++++XX++++++++++++XX++++++++++....++++++@@oo",
"  @@++++++....++++++++++XX++++++++++++XX++++++++++....++++++@@oo",
"  ++++++++....++++++++++XX++++++++++++++++++++++++....++++++++  ",
"  ++++++++....++++++++++XX++++++++++++++++++++++++....++++++++  ",
"  ++++++++....++++++++++XX++++++++++++++++####++++....++++++++  ",
"  ++++++++....++++++++++XX++++++++++++++++####++++....++++++++  ",
"  ++++++++....++++++++++XX++++++++++++++########++....++++++++  ",
"  ++++++++....++++++++++XX++++++++++++++########++....++++++++  ",
"oo++++++++....++++++++++XX++++++++++++++########++....++++++++  ",
"oo++++++++....++++++++++XX++++++++++++++########++....++++++++  ",
"oo++++++++....++++++++++++++++++++++++++XX####XX++....++++++++  ",
"oo++++++++....++++++++++++++++++++++++++XX####XX++....++++++++  ",
"oo++++++++....++++++++++++++++++++++++++++XXXX++++....++++++++oo",
"oo++++++++....++++++++++++++++++++++++++++XXXX++++....++++++++oo",
"oo++++++++....++++++++++++++++++++++++++++++++++++....++++++++oo",
"oo++++++++....++++++++++++++++++++++++++++++++++++....++++++++oo",
"  ++++++++....++++++++++++++++++++++++XX++++++++++....++++++++oo",
"  ++++++++....++++++++++++++++++++++++XX++++++++++....++++++++oo",
"  ++++++++....++++++++++XX++++++++++++XX++++++++++....++++++++  ",
"  ++++++++....++++++++++XX++++++++++++XX++++++++++....++++++++  ",
"  ++++++++....++++++++++XX++++++++++++XX++++++++++....++++++++  ",
"  ++++++++....++++++++++XX++++++++++++XX++++++++++....++++++++  ",
"  ++++++++....++++++++++XX++++++++++++XX++++++++++....++++++++  ",
"  ++++++++....++++++++++XX++++++++++++XX++++++++++....++++++++  ",
"  ++++++++....++++++++++XX++++++++++++++++++++++++....++++++++oo",
"  ++++++++....++++++++++XX++++++++++++++++++++++++....++++++++oo",
"  ++++++++....++++++++++XX++++++++++++++++++++++++....++++++++oo",
"  ++++++++....++++++++++XX++++++++++++++++++++++++....++++++++oo",
"  ++++++++....++++++++++XX++++++++++++XX++++++++++....++++++++oo",
"  ++++++++....++++++++++XX++++++++++++XX++++++++++....++++++++oo",
"  ++++++++....ooOOOOOOOOOOooooooOOOOOOOOOOoo  ooOO....++++++++oo",
"  ++++++++....ooOOOOOOOOOOooooooOOOOOOOOOOoo  ooOO....++++++++oo"
};
