/* XPM */
static char *result[] = {
/* columns rows colors chars-per-pixel */
"64 64 3 1 ",
"  c #0C1317",
". c #17394A",
"X c #5A5875",
/* pixels */
"            ................        ..XXXXXXXXXXXXXX........    ",
"            ................        ..XXXXXXXXXXXXXX........    ",
"    ......XXXXXXXXXXXXXX............XXXXXXXXXXXXXXXXXXXX......  ",
"    ......XXXXXXXXXXXXXX............XXXXXXXXXXXXXXXXXXXX......  ",
"  ......XXXXXXXXXXXXXXXXXX........XXXXXXXXXXXXXXXXXXXXXX......  ",
"  ......XXXXXXXXXXXXXXXXXX........XXXXXXXXXXXXXXXXXXXXXX......  ",
"  ....XXXXXXXXXXXXXXXXXXXXXX....XXXXXXXXXXXXXXXXXXXXXXXX  ....  ",
"  ....XXXXXXXXXXXXXXXXXXXXXX....XXXXXXXXXXXXXXXXXXXXXXXX  ....  ",
"    ..XXXXXXXXXXXXXXXXXXXXXXXXXX..XXXXXXXXXXXXXXXXXXXXXX  ..    ",
"    ..XXXXXXXXXXXXXXXXXXXXXXXXXX..XXXXXXXXXXXXXXXXXXXXXX  ..    ",
"    ..XXXXXXXXXXXXXXXXXXXXXXXXXX..XXXXXXXXXXXXXXXXXXXX........  ",
"    ..XXXXXXXXXXXXXXXXXXXXXXXXXX..XXXXXXXXXXXXXXXXXXXX........  ",
"  ....XXXXXXXXXXXXXXXXXXXXXXXXXXXXXXXXXXXXXXXXXXXXXX............",
"  ....XXXXXXXXXXXXXXXXXXXXXXXXXXXXXXXXXXXXXXXXXXXXXX............",
"......XXXXXXXXXXXXXXXXXXXXXXXXXXXXXXXXXXXXXXXXXXXX..............",
"......XXXXXXXXXXXXXXXXXXXXXXXXXXXXXXXXXXXXXXXXXXXX..............",
"......XXXXXXXXXXXXXXXXXXXXXXXXXX....XXXXXXXXXXXX..XXXXXX  ......",
"......XXXXXXXXXXXXXXXXXXXXXXXXXX....XXXXXXXXXXXX..XXXXXX  ......",
"........XXXXXXXXXXXXXXXXXXXXXX........XXXXXXXX  XXXXXXXXXX  ....",
"........XXXXXXXXXXXXXXXXXXXXXX........XXXXXXXX  XXXXXXXXXX  ....",
"......  ..XXXXXXXXXXXXXXXXXX..XXXXXXXX........XXXXXXXXXXXXXX..  ",
"......  ..XXXXXXXXXXXXXXXXXX..XXXXXXXX........XXXXXXXXXXXXXX..  ",
"  ..XX..  ..XXXXXXXXXXXXXX..XXXXXXXXXXXXXX..XXXXXXXXXXXXXXXXXX  ",
"  ..XX..  ..XXXXXXXXXXXXXX..XXXXXXXXXXXXXX..XXXXXXXXXXXXXXXXXX  ",
"  XXXXXX..        ........XXXXXXXXXXXXXXXX..XXXXXXXXXXXXXXXXXX  ",
"  XXXXXX..        ........XXXXXXXXXXXXXXXX..XXXXXXXXXXXXXXXXXX  ",
"  XXXXXXXX............XXXXXXXXXXXXXXXXXXXX..XXXXXXXXXXXXXXXXXXXX",
"  XXXXXXXX............XXXXXXXXXXXXXXXXXXXX..XXXXXXXXXXXXXXXXXXXX",
"  XXXXXXXXXX........XXXXXXXXXXXXXXXXXXXXXX....XXXXXXXXXXXXXXXXXX",
"  XXXXXXXXXX........XXXXXXXXXXXXXXXXXXXXXX....XXXXXXXXXXXXXXXXXX",
"  XXXXXXXXXX..XX....XXXXXXXXXXXXXXXXXXXXXX..  ..XXXXXXXXXXXXXXXX",
"  XXXXXXXXXX..XX....XXXXXXXXXXXXXXXXXXXXXX..  ..XXXXXXXXXXXXXXXX",
"  ..XXXXXX..XXXXXXXX..XXXXXXXXXXXXXX......XXXX........XXXXXXXX..",
"  ..XXXXXX..XXXXXXXX..XXXXXXXXXXXXXX......XXXX........XXXXXXXX..",
"  ........XXXXXXXXXXXX..XXXXXXXXXX..XXXXXXXXXXXX........XXXX..  ",
"  ........XXXXXXXXXXXX..XXXXXXXXXX..XXXXXXXXXXXX........XXXX..  ",
"  ......XXXXXXXXXXXXXXXX..XXXXXX..XXXXXXXXXXXXXXXXXXXX........  ",
"  ......XXXXXXXXXXXXXXXX..XXXXXX..XXXXXXXXXXXXXXXXXXXX........  ",
"  ....XXXXXXXXXXXXXXXXXXXX....  XXXXXXXXXXXXXXXXXXXXXXXX  ..    ",
"  ....XXXXXXXXXXXXXXXXXXXX....  XXXXXXXXXXXXXXXXXXXXXXXX  ..    ",
"....XXXXXXXXXXXXXXXXXXXXXXXXXX  XXXXXXXXXXXXXXXXXXXXXXXX  ..    ",
"....XXXXXXXXXXXXXXXXXXXXXXXXXX  XXXXXXXXXXXXXXXXXXXXXXXX  ..    ",
"..XXXXXXXXXXXXXXXXXXXXXXXXXXXX  XXXXXXXXXXXXXXXXXXXXXX........  ",
"..XXXXXXXXXXXXXXXXXXXXXXXXXXXX  XXXXXXXXXXXXXXXXXXXXXX........  ",
"..XXXXXXXXXXXXXXXXXXXXXXXXXXXX..XXXXXXXXXXXXXXXXXXXX  ..........",
"..XXXXXXXXXXXXXXXXXXXXXXXXXXXX..XXXXXXXXXXXXXXXXXXXX  ..........",
"....XXXXXXXXXXXXXXXXXXXXXXXXXX....XXXXXXXXXXXXXXXX  ............",
"....XXXXXXXXXXXXXXXXXXXXXXXXXX....XXXXXXXXXXXXXXXX  ............",
"  ..XXXXXXXXXXXXXXXXXXXXXXXXXX......XXXXXXXXXXXX  XXXXXX  ......",
"  ..XXXXXXXXXXXXXXXXXXXXXXXXXX......XXXXXXXXXXXX  XXXXXX  ......",
"  ......XXXXXXXXXXXXXXXXXXXXXX........XXXXXXXX  XXXXXXXXXX  ..  ",
"  ......XXXXXXXXXXXXXXXXXXXXXX........XXXXXXXX  XXXXXXXXXX  ..  ",
"  ....  ..XXXXXXXXXXXXXXXXXXXX  XXXXXXXX......XXXXXXXXXXXXXX..  ",
"  ....  ..XXXXXXXXXXXXXXXXXXXX  XXXXXXXX......XXXXXXXXXXXXXX..  ",
"    ....  ..XXXXXXXXXXXXXXXX  XXXXXXXXXXXX..XXXXXXXXXXXXXXXXXX  ",
"    ....  ..XXXXXXXXXXXXXXXX  XXXXXXXXXXXX..XXXXXXXXXXXXXXXXXX  ",
"    ......  ....XXXXXXXX..  XXXXXXXXXXXXXXXXXXXXXXXXXXXXXXXXXX..",
"    ......  ....XXXXXXXX..  XXXXXXXXXXXXXXXXXXXXXXXXXXXXXXXXXX..",
"  ............XXXXXXXXXXXX..XXXXXXXXXXXXXXXXXXXXXXXXXXXXXXXXXX..",
"  ............XXXXXXXXXXXX..XXXXXXXXXXXXXXXXXXXXXXXXXXXXXXXXXX..",
"  ............XXXXXXXXXXXXXX..XXXXXXXXXXXXXX..XXXXXXXXXXXXXXXX..",
"  ............XXXXXXXXXXXXXX..XXXXXXXXXXXXXX..XXXXXXXXXXXXXXXX..",
"    ............XXXXXXXXXX......XXXXXXXXXX..  ..XXXXXXXXXXXX....",
"    ............XXXXXXXXXX......XXXXXXXXXX..  ..XXXXXXXXXXXX...."
};
