/* XPM */
static char *_17b7ee229584f56a895d2fd77bf7083eExXverdeNcAXgZA[] = {
/* columns rows colors chars-per-pixel */
"64 64 10 1 ",
"  c #080000",
". c #0C1317",
"X c #17394A",
"o c #5A5875",
"O c #B97371",
"+ c #67979C",
"@ c #CF9C9B",
"# c #9CC8CC",
"$ c #E3C6C5",
"% c white",
/* pixels */
"............XXXXXXXXXXXXXXXX........XXooooooooooooooXXXXXXXX....",
"............XXXXXXXXXXXXXXXX........XXooooooooooooooXXXXXXXX....",
"....XXXXXXooooooooooooooXXXXXXXXXXXXooooooooooooooooooooXXXXXX..",
"....XXXXXXooooooooooooooXXXXXXXXXXXXooooooooooooooooooooXXXXXX..",
"..XXXXXXooooooooooooooooooXXXXXXXXooooooooooooooooooooooXXXXXX..",
"..XXXXXXooooooooooooooooooXXXXXXXXooooooooooooooooooooooXXXXXX..",
"..XXXXooooooooooooooooooooooXXXXoooooooooooooooooooooooo..XXXX..",
"..XXXXooooooooooooooooooooooXXXXoooooooooooooooooooooooo..XXXX..",
"....XXooooooooooooooooooooooooooXXoooooooooooooooooooooo..XX....",
"....XXooooooooooooooooooooooooooXXoooooooooooooooooooooo..XX....",
"....XXooooooooooooooooooooooooooXXooooooooooooooooooooXXXXXXXX..",
"....XXooooooooooooooooooooooooooXXooooooooooooooooooooXXXXXXXX..",
"..XXXXooooooooooooooooooooooooooooooooooooooooooooooXXXXXXXXXXXX",
"..XXXXooooooooooooooooooooooooooooooooooooooooooooooXXXXXXXXXXXX",
"XXXXXXooooooooooooooooooooooooooooooooooooooooooooXXXXXXXXXXXXXX",
"XXXXXXoooooooooooooooooooooo        ooooooooooooooXXXXXXXXXXXXXX",
"XXXXXXoooooooooooooooooooo            ooooooooooXXoooooo..XXXXXX",
"XXXXXXoooooooooooooooooo    @@@@@@@@    ooooooooXXoooooo..XXXXXX",
"XXXXXXXXooooooooooooooo   @$$$$$$$$$$@   ooooo..oooooooooo..XXXX",
"XXXXXXXXoooooooooooooo  @$$$$$$$$$$$$$$@  oooo..oooooooooo..XXXX",
"XXXXXX..XXooooooooooo  @$$$$$$$$$$$$$$$$@  XXXooooooooooooooXX..",
"XXXXXX..XXoooooooooo  @$$$$$$$$$$$$$$$$$$@  XXooooooooooooooXX..",
"..XXooXX..XXoooooooo  $$$$$$$$$$$$$$$$$$$$  oooooooooooooooooo..",
"..XXooXX..XXooooooo  @$$$$$$$$$$$$$$$$$$$$@  ooooooooooooooooo..",
"..ooooooXX........X  $$$$$$$$$$$$$$$$$$$$$$  ooooooooooooooooo..",
"..ooooooXX........  @$$$$$$$$$$$@    @$$$$$@  oooooooooooooooo..",
"..ooooooooXXXXXXXX  @$$$$$$$$$$$ %%   $$$$$@  oooooooooooooooooo",
"..ooooooooXXXXXXXX  @$$$$$$$$$$$ %%   $$$$$@  oooooooooooooooooo",
"..ooooooooooXXXXXX  @$$$$$$$$$$$      $$$@    oooooooooooooooooo",
"..ooooooooooXXXXXX  O@$$$$$$$$$$      $$@     oooooooooooooooooo",
"..ooooooooooXXooXXX  @$$$$$$$$$$@    @$$ %%%  XXoooooooooooooooo",
"..ooooooooooXXooXXX  O@$$$$$$$$$$####$$$      XXoooooooooooooooo",
"..XXooooooXXoooooooo  @$$$$$$$$$$####$$$@@@  oXXXXXXXXooooooooXX",
"..XXooooooXXoooooooo  O@$$$$$$$$$####$$$$@O  oXXXXXXXXooooooooXX",
"..XXXXXXXXooooooooooo  O@$$$$$$$$####$$$@O  ooooXXXXXXXXooooXX..",
"..XXXXXXXXoooooooooooo  O@@$$$$$$####$$@O  oooooXXXXXXXXooooXX..",
"..XXXXXXooooooooooooooo   O@$$$$$###+@O   ooooooooooooXXXXXXXX..",
"..XXXXXXoooooooooooooooo    O@@@@+++     oooooooooooooXXXXXXXX..",
"..XXXXooooooooooooooooooo              ooooooooooooooooo..XX....",
"..XXXXoooooooooooooooooo  @$          oooooooooooooooooo..XX....",
"XXXXooooooooooooooooooo  @$$$@@@@@@@  oooooooooooooooooo..XX....",
"XXXXooooooooooooooooooo  @$$ @$$$$$$   ooooooooooooooooo..XX....",
"XXooooooooooooooooooooo  @$ @$$$$$$@@  oooooooooooooooXXXXXXXX..",
"XXoooooooooooooooooooooo    @$$$ O@@@  oooooooooooooooXXXXXXXX..",
"XXooooooooooooooooooooooo   @$$$ O@@@  ooooooooooooo..XXXXXXXXXX",
"XXoooooooooooooooooooooooo   @@@ O@@  oooooooooooooo..XXXXXXXXXX",
"XXXXooooooooooooooooooooooo          ooooooooooooo..XXXXXXXXXXXX",
"XXXXoooooooooooooooooooooooo        oooooooooooooo..XXXXXXXXXXXX",
"..XXooooooooooooooooooooooooooXXXXXXoooooooooooo..oooooo..XXXXXX",
"..XXooooooooooooooooooooooooooXXXXXXoooooooooooo..oooooo..XXXXXX",
"..XXXXXXooooooooooooooooooooooXXXXXXXXoooooooo..oooooooooo..XX..",
"..XXXXXXooooooooooooooooooooooXXXXXXXXoooooooo..oooooooooo..XX..",
"..XXXX..XXoooooooooooooooooooo..ooooooooXXXXXXooooooooooooooXX..",
"..XXXX..XXoooooooooooooooooooo..ooooooooXXXXXXooooooooooooooXX..",
"....XXXX..XXoooooooooooooooo..ooooooooooooXXoooooooooooooooooo..",
"....XXXX..XXoooooooooooooooo..ooooooooooooXXoooooooooooooooooo..",
"....XXXXXX..XXXXooooooooXX..ooooooooooooooooooooooooooooooooooXX",
"....XXXXXX..XXXXooooooooXX..ooooooooooooooooooooooooooooooooooXX",
"..XXXXXXXXXXXXooooooooooooXXooooooooooooooooooooooooooooooooooXX",
"..XXXXXXXXXXXXooooooooooooXXooooooooooooooooooooooooooooooooooXX",
"..XXXXXXXXXXXXooooooooooooooXXooooooooooooooXXooooooooooooooooXX",
"..XXXXXXXXXXXXooooooooooooooXXooooooooooooooXXooooooooooooooooXX",
"....XXXXXXXXXXXXooooooooooXXXXXXooooooooooXX..XXooooooooooooXXXX",
"....XXXXXXXXXXXXooooooooooXXXXXXooooooooooXX..XXooooooooooooXXXX"
};
