/* XPM */
static char *dcdd0df2fe83461ce7ddd5aac2bc18f6A7KRFH50mkhn2gUK[] = {
/* columns rows colors chars-per-pixel */
"64 64 12 1 ",
"  c #080000",
". c #0C1317",
"X c #17394A",
"o c #5A5875",
"O c #B97371",
"+ c #67979B",
"@ c #67979C",
"# c #68989C",
"$ c #CF9C9B",
"% c #9CC8CD",
"& c #E3C6C5",
"* c white",
/* pixels */
"............XXXXXXXXXXXXXXXX........XXooooooooooooooXXXXXXXX....",
"............XXXXXXXXXXXXXXXX........XXooooooooooooooXXXXXXXX....",
"....XXXXXXooooooooooooooXXXXXXXXXXXXooooooooooooooooooooXXXXXX..",
"....XXXXXXooooooooooooooXXXXXXXXXXXXooooooooooooooooooooXXXXXX..",
"..XXXXXXooooooooooooooooooXXXXXXXXooooooooooooooooooooooXXXXXX..",
"..XXXXXXooooooooooooooooooXXXXXXXXooooooooooooooooooooooXXXXXX..",
"..XXXXooooooooooooooooooooooXXXXoooooooooooooooooooooooo..XXXX..",
"..XXXXooooooooooooooooooooooXXXXoooooooooooooooooooooooo..XXXX..",
"....XXooooooooooooooooooooooooooXXoooooooooooooooooooooo..XX....",
"....XXooooooooooooooooooooooooooXXoooooooooooooooooooooo..XX....",
"....XXooooooooooooooooooooooooooXXooooooooooooooooooooXXXXXXXX..",
"....XXooooooooooooooooooooooooooXXooooooooooooooooooooXXXXXXXX..",
"..XXXXooooooooooooooooooooooooooooooooooooooooooooooXXXXXXXXXXXX",
"..XXXXooooooooooooooooooooooooooooooooooooooooooooooXXXXXXXXXXXX",
"XXXXXXooooooooooooooooooooooooooooooooooooooooooooXXXXXXXXXXXXXX",
"XXXXXXoooooooooooooooooooooo        ooooooooooooooXXXXXXXXXXXXXX",
"XXXXXXoooooooooooooooooooo            ooooooooooXXoooooo..XXXXXX",
"XXXXXXoooooooooooooooooo    $$$$$$$$    ooooooooXXoooooo..XXXXXX",
"XXXXXXXXooooooooooooooo   $&&&&&&&&&&$   ooooo..oooooooooo..XXXX",
"XXXXXXXXoooooooooooooo  $&&&&&&&&&&&&&&$  oooo..oooooooooo..XXXX",
"XXXXXX..XXooooooooooo  $&&&&&&&&&&&&&&&&$  XXXooooooooooooooXX..",
"XXXXXX..XXoooooooooo  $&&&&&&&&&&&&&&&&&&$  XXooooooooooooooXX..",
"..XXooXX..XXoooooooo  &&&&&&&&&&&&&&&&&&&&  oooooooooooooooooo..",
"..XXooXX..XXooooooo  $&&&&&&&&&&&&&&&&&&&&$  ooooooooooooooooo..",
"..ooooooXX........X  &&&&&&&&&&&&&&&&&&&&&&  ooooooooooooooooo..",
"..ooooooXX........  $&&&&&&&&&&&&&&&&&&&&&&$  oooooooooooooooo..",
"..ooooooooXXXXXXXX  $&$    $&&&&&&&&$    $&$  oooooooooooooooooo",
"..ooooooooXXXXXXXX  $& **   &&&&&&&& **   &$  oooooooooooooooooo",
"..ooooooooooXXXXXX  $$ **   &&&&&&&& **   $$  oooooooooooooooooo",
"..ooooooooooXXXXXX  O$      &&    &&      $O  oooooooooooooooooo",
"..ooooooooooXXooXXX  $      &      &      $  .XXoooooooooooooooo",
"..ooooooooooXXooXXX  O$    $& **** &$    $O  .XXoooooooooooooooo",
"..XXooooooXXoooooooo  $%%%$&&      &&$%%%$  ooXXXXXXXXooooooooXX",
"..XXooooooXXoooooooo  O%%%&&&&&&&&&&&&%%%O  ooXXXXXXXXooooooooXX",
"..XXXXXXXXooooooooooo  #%%&&&&&&&&&&&&%%@  oooooXXXXXXXXooooXX..",
"..XXXXXXXXoooooooooooo  @%$&&&&&&&&&&$%+  ooooooXXXXXXXXooooXX..",
"..XXXXXXooooooooooooooo   +$&&&&&&&&$@   oooooooooooooXXXXXXXX..",
"..XXXXXXoooooooooooooooo    O$$$$$$O    ooooooooooooooXXXXXXXX..",
"..XXXXooooooooooooooooooo              ooooooooooooooooo..XX....",
"..XXXXoooooooooooooooooo  $&        &$  oooooooooooooooo..XX....",
"XXXXooooooooooooooooooo  $&&$$$$$$$$&&$  ooooooooooooooo..XX....",
"XXXXooooooooooooooooooo  $& $&&&&&&$ &$  ooooooooooooooo..XX....",
"XXooooooooooooooooooooo  $& &&&&&&&& &$  oooooooooooooXXXXXXXX..",
"XXoooooooooooooooooooooo    &&$  $&&    ooooooooooooooXXXXXXXX..",
"XXooooooooooooooooooooooo   &&&  $&&   ooooooooooooo..XXXXXXXXXX",
"XXoooooooooooooooooooooooo   &&  $&   oooooooooooooo..XXXXXXXXXX",
"XXXXooooooooooooooooooooooo          ooooooooooooo..XXXXXXXXXXXX",
"XXXXoooooooooooooooooooooooo   XX   oooooooooooooo..XXXXXXXXXXXX",
"..XXooooooooooooooooooooooooooXXXXXXoooooooooooo..oooooo..XXXXXX",
"..XXooooooooooooooooooooooooooXXXXXXoooooooooooo..oooooo..XXXXXX",
"..XXXXXXooooooooooooooooooooooXXXXXXXXoooooooo..oooooooooo..XX..",
"..XXXXXXooooooooooooooooooooooXXXXXXXXoooooooo..oooooooooo..XX..",
"..XXXX..XXoooooooooooooooooooo..ooooooooXXXXXXooooooooooooooXX..",
"..XXXX..XXoooooooooooooooooooo..ooooooooXXXXXXooooooooooooooXX..",
"....XXXX..XXoooooooooooooooo..ooooooooooooXXoooooooooooooooooo..",
"....XXXX..XXoooooooooooooooo..ooooooooooooXXoooooooooooooooooo..",
"....XXXXXX..XXXXooooooooXX..ooooooooooooooooooooooooooooooooooXX",
"....XXXXXX..XXXXooooooooXX..ooooooooooooooooooooooooooooooooooXX",
"..XXXXXXXXXXXXooooooooooooXXooooooooooooooooooooooooooooooooooXX",
"..XXXXXXXXXXXXooooooooooooXXooooooooooooooooooooooooooooooooooXX",
"..XXXXXXXXXXXXooooooooooooooXXooooooooooooooXXooooooooooooooooXX",
"..XXXXXXXXXXXXooooooooooooooXXooooooooooooooXXooooooooooooooooXX",
"....XXXXXXXXXXXXooooooooooXXXXXXooooooooooXX..XXooooooooooooXXXX",
"....XXXXXXXXXXXXooooooooooXXXXXXooooooooooXX..XXooooooooooooXXXX"
};
