/* XPM */
static char *_fe77276a57e48f4efa3a4bb385b0cd1rQ3QWXMHSKUZvpSS[] = {
/* columns rows colors chars-per-pixel */
"64 64 11 1 ",
"  c black",
". c #080000",
"X c #0C1317",
"o c #17394A",
"O c #5A5875",
"+ c #B97371",
"@ c #67979C",
"# c #CF9C9B",
"$ c #9CC8CC",
"% c #E3C6C5",
"& c white",
/* pixels */
"XXXXXXXXXXXXooooooooooooooooXXXXXXXXooOOOOOOOOOOOOOOooooooooXXXX",
"XXXXXXXXXXXXooooooooooooooooXXXXXXXXooOOOOOOOOOOOOOOooooooooXXXX",
"XXXXooooooOOOOOOOOOOOOOOooooooooooooOOOOOOOOOOOOOOOOOOOOooooooXX",
"XXXXooooooOOOOOOOOOOOOOOooooooooooooOOOOOOOOOOOOOOOOOOOOooooooXX",
"XXooooooOOOOOOOOOOOOOOOOOOooooooooOOOOOOOOOOOOOOOOOOOOOOooooooXX",
"XXooooooOOOOOOOOOOOOOOOOOOooooooooOOOOOOOOOOOOOOOOOOOOOOooooooXX",
"XXooooOOOOOOOOOOOOOOOOOOOOOOooooOOOOOOOOOOOOOOOOOOOOOOOOXXooooXX",
"XXooooOOOOOOOOOOOOOOOOOOOOOOooooOOOOOOOOOOOOOOOOOOOOOOOOXXooooXX",
"XXXXooOOOOOOOOOOOOOOOOOOOOOOOOOOooOOOOOOOOOOOOOOOOOOOOOOXXooXXXX",
"XXXXooOOOOOOOOOOOOOOOOOOOOOOOOOOooOOOOOOOOOOOOOOOOOOOOOOXXooXXXX",
"XXXXooOOOOOOOOOOOOOOOOOOOOOOOOOOooOOOOOOOOOOOOOOOOOOOOooooooooXX",
"XXXXooOOOOOOOOOOOOOOOOOOOOOOOOOOooOOOOOOOOOOOOOOOOOOOOooooooooXX",
"XXooooOOOOOOOOOOOOOOOOOOOOOOOOOOOOOOOOOOOOOOOOOOOOOOoooooooooooo",
"XXooooOOOOOOOOOOOOOOOOOOOOOOOOOOOOOOOOOOOOOOOOOOOOOOoooooooooooo",
"ooooooOOOOOOOOOOOOOOOOOOOOOOOOOOOOOOOOOOOOOOOOOOOOoooooooooooooo",
"ooooooOOOOOOOOOOOOOOOOOOOOOO........OOOOOOOOOOOOOOoooooooooooooo",
"ooooooOOOOOOOOOOOOOOOOOOOO............OOOOOOOOOOooOOOOOOXXoooooo",
"ooooooOOOOOOOOOOOOOOOOOO....########....OOOOOOOOooOOOOOOXXoooooo",
"ooooooooOOOOOOOOOOOOOOO...#%%%%%%%%%%#...OOOOOXXOOOOOOOOOOXXoooo",
"ooooooooOOOOOOOOOOOOOO..#%%%%%%%%%%%%%%#..OOOOXXOOOOOOOOOOXXoooo",
"ooooooXXooOOOOOOOOOOO..#%%%%%%%%%%%%%%%%#..oooOOOOOOOOOOOOOOooXX",
"ooooooXXooOOOOOOOOOO..#%%%%%%%%%%%%%%%%%%#..ooOOOOOOOOOOOOOOooXX",
"XXooOOooXXooOOOOOOOO..%%%%%%%%%%%%%%%%%%%%..OOOOOOOOOOOOOOOOOOXX",
"XXooOOooXXooOOOOOOO..#%%%%%%%%%%%%%%%%%%%%#..OOOOOOOOOOOOOOOOOXX",
"XXOOOOOOooXXXXXXXXo..%%%%%%%%%%%%%%%%%%%%%%..OOOOOOOOOOOOOOOOOXX",
"XXOOOOOOooXXXXXXXX..#%%%%%#....#%%%%%%%%%%% ..OOOOOOOOOOOOOOOOXX",
"XXOOOOOOOOoooooooo..#%%%%%...&&.%%%%%%%%%%%# .OOOOOOOOOOOOOOOOOO",
"XXOOOOOOOOoooooooo..#%%%%%...&&.%%%%%%%%%%%#..OOOOOOOOOOOOOOOOOO",
"XXOOOOOOOOOOoooooo....#%%%......%%%%%%%%%%%#..OOOOOOOOOOOOOOOOOO",
"XXOOOOOOOOOOoooooo.....#%%......%%%%%%%%%%#+..OOOOOOOOOOOOOOOOOO",
"XXOOOOOOOOOOooOOoo..&&&.%%#....#%%%%%%%%%%#..XooOOOOOOOOOOOOOOOO",
"XXOOOOOOOOOOooOOoo......%%%$$$$%%%%%%%%%%#+..XooOOOOOOOOOOOOOOOO",
"XXooOOOOOOooOOOOOOO..###%%%$$$$%%%%%%%%%%#..OOooooooooOOOOOOOOoo",
"XXooOOOOOOooOOOOOOO..+#%%%%$$$$%%%%%%%%%#+..OOooooooooOOOOOOOOoo",
"XXooooooooOOOOOOOOOO..+#%%%$$$$%%%%%%%%#+..OOOOOooooooooOOOOooXX",
"XXooooooooOOOOOOOOOOO..+#%%$$$$%%%%%%##+..OOOOOOooooooooOOOOooXX",
"XXooooooOOOOOOOOOOOOOO...+#@$$$%%%%%#+...OOOOOOOOOOOOOooooooooXX",
"XXooooooOOOOOOOOOOOOOOO.....@@@####+....OOOOOOOOOOOOOOooooooooXX",
"XXooooOOOOOOOOOOOOOOOOOOO..............OOOOOOOOOOOOOOOOOXXooXXXX",
"XXooooOOOOOOOOOOOOOOOOOOOO..........%#..OOOOOOOOOOOOOOOOXXooXXXX",
"ooooOOOOOOOOOOOOOOOOOOOOOO..#######%%%#..OOOOOOOOOOOOOOOXXooXXXX",
"ooooOOOOOOOOOOOOOOOOOOOOO...%%%%%%#.%%#..OOOOOOOOOOOOOOOXXooXXXX",
"ooOOOOOOOOOOOOOOOOOOOOOOO..##%%%%%%#.%#..OOOOOOOOOOOOOooooooooXX",
"ooOOOOOOOOOOOOOOOOOOOOOOO..###+.%%%#....OOOOOOOOOOOOOOooooooooXX",
"ooOOOOOOOOOOOOOOOOOOOOOOO..###+.%%%#...OOOOOOOOOOOOOXXoooooooooo",
"ooOOOOOOOOOOOOOOOOOOOOOOOO..##+.###...OOOOOOOOOOOOOOXXoooooooooo",
"ooooOOOOOOOOOOOOOOOOOOOOOOO..........OOOOOOOOOOOOOXXoooooooooooo",
"ooooOOOOOOOOOOOOOOOOOOOOOOOO........OOOOOOOOOOOOOOXXoooooooooooo",
"XXooOOOOOOOOOOOOOOOOOOOOOOOOOOooooooOOOOOOOOOOOOXXOOOOOOXXoooooo",
"XXooOOOOOOOOOOOOOOOOOOOOOOOOOOooooooOOOOOOOOOOOOXXOOOOOOXXoooooo",
"XXooooooOOOOOOOOOOOOOOOOOOOOOOooooooooOOOOOOOOXXOOOOOOOOOOXXooXX",
"XXooooooOOOOOOOOOOOOOOOOOOOOOOooooooooOOOOOOOOXXOOOOOOOOOOXXooXX",
"XXooooXXooOOOOOOOOOOOOOOOOOOOOXXOOOOOOOOooooooOOOOOOOOOOOOOOooXX",
"XXooooXXooOOOOOOOOOOOOOOOOOOOOXXOOOOOOOOooooooOOOOOOOOOOOOOOooXX",
"XXXXooooXXooOOOOOOOOOOOOOOOOXXOOOOOOOOOOOOooOOOOOOOOOOOOOOOOOOXX",
"XXXXooooXXooOOOOOOOOOOOOOOOOXXOOOOOOOOOOOOooOOOOOOOOOOOOOOOOOOXX",
"XXXXooooooXXooooOOOOOOOOooXXOOOOOOOOOOOOOOOOOOOOOOOOOOOOOOOOOOoo",
"XXXXooooooXXooooOOOOOOOOooXXOOOOOOOOOOOOOOOOOOOOOOOOOOOOOOOOOOoo",
"XXooooooooooooOOOOOOOOOOOOooOOOOOOOOOOOOOOOOOOOOOOOOOOOOOOOOOOoo",
"XXooooooooooooOOOOOOOOOOOOooOOOOOOOOOOOOOOOOOOOOOOOOOOOOOOOOOOoo",
"XXooooooooooooOOOOOOOOOOOOOOooOOOOOOOOOOOOOOooOOOOOOOOOOOOOOOOoo",
"XXooooooooooooOOOOOOOOOOOOOOooOOOOOOOOOOOOOOooOOOOOOOOOOOOOOOOoo",
"XXXXooooooooooooOOOOOOOOOOooooooOOOOOOOOOOooXXooOOOOOOOOOOOOoooo",
"XXXXooooooooooooOOOOOOOOOOooooooOOOOOOOOOOooXXooOOOOOOOOOOOOoooo"
};
