/* XPM */
static char *result[] = {
/* columns rows colors chars-per-pixel */
"64 64 5 1 ",
"  c #0C1317",
". c #17394A",
"X c #5A5875",
"o c #E17B50",
"O c #FAFA82",
/* pixels */
"            ................        ..XXXXXXXXXXXXXX........    ",
"            ................        ..XXXXXXXXXXXXXX........    ",
"    ......XXXXXXXXXXXXXX............XXXXXXXXXXXXXXXXXXXX......  ",
"    ......XXXXXXXXXXXXXX............XXXXXXXXXXXXXXXXXXXX......  ",
"  ......XXXXXXXXXXXXXXXXXX........XXXXXXXXXXXXXXXXXXXXXX......  ",
"  ......XXXXXXXXXXXXXXXXXX........XXXXXXXXXXXXXXXXXXXXXX......  ",
"  ....XXXXXXXXXXXXXXXXXXXXXX....XXXXXXXXXXXXXXXXXXXXXXXX  ....  ",
"  ....XXXXXXXXXXXXXXXXXXXXXX....XXXXXXXXXXXXXXXXXXXXXXXX  ....  ",
"    ..XXXXXXXXXXXXXXXXXXXXXXXXXX..XXXXXXXXXXXXXXXXXXXXXX  ..    ",
"    ..XXXXXXXXXXXXXXXXXXXXXXXXXX..XXXXXXXXXXXXXXXXXXXXXX  ..    ",
"    ..XXXXXXXXXXXXXXXXXXXXXXXXXX..XXXXXXXXXXXXXXXXXXXX........  ",
"    ..XXXXXXXXXXXXXXXXXXXXXXXXXX..XXXXXXXXXXXXXXXXXXXX........  ",
"  ....XXXXXXXXXXXXXXXXXXXXXXXXXXXXXXXXXXXXXXXXXXXXXX............",
"  ....XXXXXXXXXXXXXXXXXXXXXXXXXXXXXXXXXXXXXXXXXXXXXX............",
"......XXXXXXXXXXXXXXXXXXXXXXXXXXXXXXXXXXXXXXXXXXXX..............",
"......XXXXXXXXXXXXXXXXXXXXXXXXXXXXXXXXXXXXXXXXXXXX..............",
"......XXXXXXXXXXXXXXXXXXXXXXXXXX....XXXXXXXXXXXX..XXXXXX  ......",
"......XXXXXXXXXXXXXXXXXXXXXXXXXX....XXXXXXXXXXXX..XXXXXX  ......",
"........XXXXXXXXXXXXXXXXXXXXXX........XXXXXXXX  XXXXXXXXXX  ....",
"........XXXXXXXXXXXXXXXXXXXXXX........XXXXXXXX  XXXXXXXXXX  ....",
"......  ..XXXXXXXXOOOOXXXXXX..XXXXXXXX........XXXXXXXXXXXXXX..  ",
"......  ..XXXXXXXXOOOOXXXXXX..XXXXXXXX........XXXXXXXXXXXXXX..  ",
"  ..XX..  ..XXXXOOOOOOOOXX..XXXXXXXXXXXXXX..XXXXXXXXXXXXXXXXXX  ",
"  ..XX..  ..XXXXOOOOOOOOXX..XXXXXXXXXXXXXX..XXXXXXXXXXXXXXXXXX  ",
"  XXXXXX..    OOOO....OOOOXXXXXXXXXXXXXXXX..XXXXXXXXXXXXXXXXXX  ",
"  XXXXXX..    OOOO....OOOOXXXXXXXXXXXXXXXX..XXXXXXXXXXXXXXXXXX  ",
"  XXXXXXXX....OOOO....OOOOXXXXXXXXXXXXXXXX..XXXXXXXXXXXXXXXXXXXX",
"  XXXXXXXX....OOOO....OOOOXXXXXXXXXXXXXXXX..XXXXXXXXXXXXXXXXXXXX",
"  XXXXXXXXXX..OOOO..XXOOOOooOOOOooOOOOOOOOOOOOOOOOXXXXXXXXXXXXXX",
"  XXXXXXXXXX..OOOO..XXOOOOooOOOOooOOOOOOOOOOOOOOOOXXXXXXXXXXXXXX",
"  XXXXXXXXXX..OOOO..XXOOOOooOOOOooooooooOOOOooOOooXXXXXXXXXXXXXX",
"  XXXXXXXXXX..OOOO..XXOOOOooOOOOooooooooOOOOooOOooXXXXXXXXXXXXXX",
"  ..XXXXXX..XXOOOOXX..OOOOXXXXXXXXXX....OOXXOOOO......XXXXXXXX..",
"  ..XXXXXX..XXOOOOXX..OOOOXXXXXXXXXX....OOXXOOOO......XXXXXXXX..",
"  ........XXXXOOOOXXXXOOOOXXXXXXXX..XXXXOOXXOOOO........XXXX..  ",
"  ........XXXXOOOOXXXXOOOOXXXXXXXX..XXXXOOXXOOOO........XXXX..  ",
"  ......XXXXXXXXOOOOOOOO..XXXXXX..XXXXXXXXXXOOOOXXXXXX........  ",
"  ......XXXXXXXXOOOOOOOO..XXXXXX..XXXXXXXXXXOOOOXXXXXX........  ",
"  ....XXXXXXXXXXXXOOOOXXXX....  XXXXXXXXXXXXXXXXXXXXXXXX  ..    ",
"  ....XXXXXXXXXXXXOOOOXXXX....  XXXXXXXXXXXXXXXXXXXXXXXX  ..    ",
"....XXXXXXXXXXXXXXXXXXXXXXXXXX  XXXXXXXXXXXXXXXXXXXXXXXX  ..    ",
"....XXXXXXXXXXXXXXXXXXXXXXXXXX  XXXXXXXXXXXXXXXXXXXXXXXX  ..    ",
"..XXXXXXXXXXXXXXXXXXXXXXXXXXXX  XXXXXXXXXXXXXXXXXXXXXX........  ",
"..XXXXXXXXXXXXXXXXXXXXXXXXXXXX  XXXXXXXXXXXXXXXXXXXXXX........  ",
"..XXXXXXXXXXXXXXXXXXXXXXXXXXXX..XXXXXXXXXXXXXXXXXXXX  ..........",
"..XXXXXXXXXXXXXXXXXXXXXXXXXXXX..XXXXXXXXXXXXXXXXXXXX  ..........",
"....XXXXXXXXXXXXXXXXXXXXXXXXXX....XXXXXXXXXXXXXXXX  ............",
"....XXXXXXXXXXXXXXXXXXXXXXXXXX....XXXXXXXXXXXXXXXX  ............",
"  ..XXXXXXXXXXXXXXXXXXXXXXXXXX......XXXXXXXXXXXX  XXXXXX  ......",
"  ..XXXXXXXXXXXXXXXXXXXXXXXXXX......XXXXXXXXXXXX  XXXXXX  ......",
"  ......XXXXXXXXXXXXXXXXXXXXXX........XXXXXXXX  XXXXXXXXXX  ..  ",
"  ......XXXXXXXXXXXXXXXXXXXXXX........XXXXXXXX  XXXXXXXXXX  ..  ",
"  ....  ..XXXXXXXXXXXXXXXXXXXX  XXXXXXXX......XXXXXXXXXXXXXX..  ",
"  ....  ..XXXXXXXXXXXXXXXXXXXX  XXXXXXXX......XXXXXXXXXXXXXX..  ",
"    ....  ..XXXXXXXXXXXXXXXX  XXXXXXXXXXXX..XXXXXXXXXXXXXXXXXX  ",
"    ....  ..XXXXXXXXXXXXXXXX  XXXXXXXXXXXX..XXXXXXXXXXXXXXXXXX  ",
"    ......  ....XXXXXXXX..  XXXXXXXXXXXXXXXXXXXXXXXXXXXXXXXXXX..",
"    ......  ....XXXXXXXX..  XXXXXXXXXXXXXXXXXXXXXXXXXXXXXXXXXX..",
"  ............XXXXXXXXXXXX..XXXXXXXXXXXXXXXXXXXXXXXXXXXXXXXXXX..",
"  ............XXXXXXXXXXXX..XXXXXXXXXXXXXXXXXXXXXXXXXXXXXXXXXX..",
"  ............XXXXXXXXXXXXXX..XXXXXXXXXXXXXX..XXXXXXXXXXXXXXXX..",
"  ............XXXXXXXXXXXXXX..XXXXXXXXXXXXXX..XXXXXXXXXXXXXXXX..",
"    ............XXXXXXXXXX......XXXXXXXXXX..  ..XXXXXXXXXXXX....",
"    ............XXXXXXXXXX......XXXXXXXXXX..  ..XXXXXXXXXXXX...."
};
