/* XPM */
static char *result[] = {
/* columns rows colors chars-per-pixel */
"64 64 4 1 ",
"  c #211D1D",
". c #696A6A",
"X c #999F8E",
"o c #D3D9B2",
/* pixels */
"..ooooXX..  ....XXXX..  XXooooXX....      ................XXXXXX",
"..ooooXX..  ....XXXX..  XXooooXX....      ................XXXXXX",
"ooooooooXX..  XXXXXXXX  ooooooooXX....ooooXX..............XXXXXX",
"ooooooooXX..  XXXXXXXX  ooooooooXX....ooooXX..............XXXXXX",
"ooooooooXXXX..  XXXXXXXXooooooooXX..ooooooooXX..XXooooXX..XXXXXX",
"ooooooooXXXX..  XXXXXXXXooooooooXX..ooooooooXX..XXooooXX..XXXXXX",
"XXooooXXXXXX..  XXXX....XXooooXX..XXooooooooXXXXooooooooXX..XXXX",
"XXooooXXXXXX..  XXXX....XXooooXX..XXooooooooXXXXooooooooXX..XXXX",
"..XXXXXXXX..  ooooooXX....XXXX....XXXXooooXXXXXXooooooooXX  ....",
"..XXXXXXXX..  ooooooXX....XXXX....XXXXooooXXXXXXooooooooXX  ....",
"............  ooooooooXX......XXXX..XXXXXX    XXXXooooXX    ....",
"............  ooooooooXX......XXXX..XXXXXX    XXXXooooXX    ....",
"..oooooo..  ooooooooooXX....XXXXXXXX..          XXXX    ooXX....",
"..oooooo..  ooooooooooXX....XXXXXXXX..          XXXX    ooXX....",
"ooooooooooXXXXooooooXXXX..XXXXXXXXXXXX..XXXXXX..  ..XXooooooXX..",
"ooooooooooXXXXooooooXXXX..XXXXXXXXXXXX..XXXXXX..  ..XXooooooXX..",
"ooooooooooXXXXXXXXXXXX....XXXXXXXXXXXXXXooooooXX  XXooooooooXX..",
"ooooooooooXXXXXXXXXXXX....XXXXXXXXXXXXXXooooooXX  XXooooooooXX..",
"XXooooooXXXX....      ....XXXXXXXXXXXXXXooooooXX  XXooooooooXX..",
"XXooooooXXXX....      ....XXXXXXXXXXXXXXooooooXX  XXooooooooXX..",
"XXXXXXXXXX....  XXooXXXX....XXXXXXXX....XXXXXXXX..XXXXooooXXXX..",
"XXXXXXXXXX....  XXooXXXX....XXXXXXXX....XXXXXXXX..XXXXooooXXXX..",
"..XXXXXX....  XXooooooXXXX................XXXX......XXXXXXXX....",
"..XXXXXX....  XXooooooXXXX................XXXX......XXXXXXXX....",
"....          XXooooooXXXX..ooooXX........XXooooXX          ....",
"....          XXooooooXXXX..ooooXX........XXooooXX          ....",
"..XXooooXXXX  XXXXXXXXXX..ooooooooXX....XXooooooooXX  ..oooo....",
"..XXooooXXXX  XXXXXXXXXX..ooooooooXX....XXooooooooXX  ..oooo....",
"..ooooooooXXXX  XXXXXXXXXXooooooooXXXX..XXooooooooXX  oooooooo..",
"..ooooooooXXXX  XXXXXXXXXXooooooooXXXX..XXooooooooXX  oooooooo..",
"..ooooooooXXXX    ......XXXXooooXXXXXX..XXXXooooXX  XXoooooooo..",
"..ooooooooXXXX    ......XXXXooooXXXXXX..XXXXooooXX  XXoooooooo..",
"XXooooooooXX....oooooo  ..XXXXXXXXXX......XXXXXXXX  XXXXooooXX..",
"XXooooooooXX....oooooo  ..XXXXXXXXXX......XXXXXXXX  XXXXooooXX..",
"XXXXooooXXXX..ooooooooXX  ..XXXX    ......XXXXXX......XXXXXXXXXX",
"XXXXooooXXXX..ooooooooXX  ..XXXX    ......XXXXXX......XXXXXXXXXX",
"..XXXXXXXX....XXooooooXX        ..XXooooXXXX......XXXXXX........",
"..XXXXXXXX....XXooooooXX        ..XXooooXXXX......XXXXXX........",
"XX......ooooXXXXXXXXXX  XXXXXX..XXooooooooXXXX..XXooooooXX..XXXX",
"XX......ooooXXXXXXXXXX  XXXXXX..XXooooooooXXXX..XXooooooXX..XXXX",
"ooXX..ooooooooXXXX    XXXXXXXXXXXXooooooooXXXX..XXooooooXXXXoooo",
"ooXX..ooooooooXXXX    XXXXXXXXXXXXooooooooXXXX..XXooooooXXXXoooo",
"ooXX..ooooooooXXXX  XXXXXXXXXXXXXXXXooooXXXXXX..XXooooXXXXXXoooo",
"ooXX..ooooooooXXXX  XXXXXXXXXXXXXXXXooooXXXXXX..XXooooXXXXXXoooo",
"XXXX  XXooooXXXXXX  XXXXXXXXXXXXXXXXXXXXXXXX......XXXXXXXXXXXXoo",
"XXXX  XXooooXXXXXX  XXXXXXXXXXXXXXXXXXXXXXXX......XXXXXXXXXXXXoo",
"XXXX  XXXXXXXXXXXX  ..XXXXXXXXXX....XXXX....XXXXXX..XXXXXX    XX",
"XXXX  XXXXXXXXXXXX  ..XXXXXXXXXX....XXXX....XXXXXX..XXXXXX    XX",
"XX..  ..XXXXXXXX........XXXXXX............XXooooXXXX....ooooXX  ",
"XX..  ..XXXXXXXX........XXXXXX............XXooooXXXX....ooooXX  ",
"  ..        ........XXXX......XXXXXX....XXooooooooXXXXooooooooXX",
"  ..        ........XXXX......XXXXXX....XXooooooooXXXXooooooooXX",
"..  oooooooo......ooooXXXX  XXXXooooXX..XXooooooooXXXXooooooooXX",
"..  oooooooo......ooooXXXX  XXXXooooXX..XXooooooooXXXXooooooooXX",
"  XXooooooooXX..ooooooooXX  XXooooooooXXXXXXooooXX....XXooooXXXX",
"  XXooooooooXX..ooooooooXX  XXooooooooXXXXXXooooXX....XXooooXXXX",
"  XXooooooXXXXXXXXooooXXXX  XXooooooooXXXXXXXXXX..XXXX..XXXXXX..",
"  XXooooooXXXXXXXXooooXXXX  XXooooooooXXXXXXXXXX..XXXX..XXXXXX..",
"  XXXXXXXXXXXXXXXXXXXXXXXX  XXXXooooXXXXXXXXXX..XXXXXXXX....    ",
"  XXXXXXXXXXXXXXXXXXXXXXXX  XXXXooooXXXXXXXXXX..XXXXXXXX....    ",
"....XXXXXXXXXXXXXXXXXXXXXX    XXXXXXXX..XXXXXXXXXXXXXXXX..  XXXX",
"....XXXXXXXXXXXXXXXXXXXXXX    XXXXXXXX..XXXXXXXXXXXXXXXX..  XXXX",
"........XXXX........XXXX  ....      ......XXXX....XXXXXX  XXXXXX",
"........XXXX........XXXX  ....      ......XXXX....XXXXXX  XXXXXX"
};
