/* XPM */
static char *result[] = {
/* columns rows colors chars-per-pixel */
"64 64 16 1 ",
"  c black",
". c #0C1317",
"X c #2E2419",
"o c #54041F",
"O c #12274D",
"+ c #17394A",
"@ c #5A5875",
"# c #ED1C24",
"$ c #A84111",
"% c #C46710",
"& c #FF7B00",
"* c #3494CB",
"= c #00B7EF",
"- c #FCA89D",
"; c #FAFA82",
": c #DEF9FC",
/* pixels */
"............++++++++++++++++........++@@@@@@@@@@@@@@++++++++....",
"............++++++++++++++++........++@@@@@@@@@@@@@@++++++++....",
"....++++++@@@@@@@@@@@@@@++++++##############@@@@@@@@@@@@++++++..",
"....++++++@@@@@@@@@@@@@@++++++##############@@@@@@@@@@@@++++++..",
"..++++++@@@@@@@@@@@@@@@@@@++############@@@@@@@@@@@@@@@@++++++..",
"..++++++@@@@@@@@@@@@@@@@@@++############@@@@@@@@@@@@@@@@++++++..",
"..++++@@@@@@@@@@@@@@@@@@@@##############@@@@@@@@@@@@@@$$$$++++..",
"..++++@@@@@@@@@@@@@@@@@@@@##############@@@@@@@@@@@@@@$$$$++++..",
"....++@@@@@@@@@@@@@@%%%%%%%%%%%%%%%%%%##@@@@@@@@@@@@$$$$$$$$....",
"....++@@@@@@@@@@@@@@%%%%%%%%%%%%%%%%%%##@@@@@@@@@@@@$$$$$$$$....",
"....++@@@@@@@@@@@@&&oooooooooooooooooo%%%%@@@@@@@@@@$$$$$$++++..",
"....++@@@@@@@@@@@@&&oooooooooooooooooo%%%%@@@@@@@@@@$$$$$$++++..",
"..++++@@@@@@@@@@@@oooooo----------oooooooo&&@@@@@@@@$$$$$$$$++++",
"..++++@@@@@@@@@@@@oooooo----------oooooooo&&@@@@@@@@$$$$$$$$++++",
"++++++@@@@@@@@@@@@@@oooo  ----    --oooooo&&@@@@@@++$$$$$$++++++",
"++++++@@@@@@@@@@@@@@oooo  ----    --oooooo&&@@@@@@++$$$$$$++++++",
"++++++@@@@@@@@@@@@@@@@oo------------oo@@@@@@@@@@++@@$$$$$$++++++",
"++++++@@@@@@@@@@@@@@@@oo------------oo@@@@@@@@@@++@@$$$$$$++++++",
"++++++++@@@@@@@@@@::@@::::----::::::oo::@@@@@@..@@@@@@$$@@..++++",
"++++++++@@@@@@@@@@::@@::::----::::::oo::@@@@@@..@@@@@@$$@@..++++",
"++++++******@@@@::::::::::::::::::::::::::++++@@@@@@@@$$@@@@++..",
"++++++******@@@@::::::::::::::::::::::::::++++@@@@@@@@$$@@@@++..",
"..++**::OOOO**@@@@::::::::::::::::::::::@@++@@@@@@@@@@$$@@@@@@..",
"..++**::OOOO**@@@@::::::::::::::::::::::@@++@@@@@@@@@@$$@@@@@@..",
"..@@**OOOOOO**....##::::::::::::::::::::::##@@@@@@--@@$$--@@@@..",
"..@@**OOOOOO**....##::::::::::::::::::::::##@@@@@@--@@$$--@@@@..",
"..@@**--OOOO**++::::::::::::::::::::::::::::##@@####------@@@@@@",
"..@@**--OOOO**++::::::::::::::::::::::::::::##@@####------@@@@@@",
"..@@----OO--**++##::::::::::::::::::::####oo######oo----oo##@@@@",
"..@@----OO--**++##::::::::::::::::::::####oo######oo----oo##@@@@",
"..@@@@--------######::::##::::::####::::oo########oo----oo##@@@@",
"..@@@@--------######::::##::::::####::::oo########oo----oo##@@@@",
"..++@@##oooooo######oo######::########oo##########oooo$$oo##@@++",
"..++@@##oooooo######oo######::########oo##########oooo$$oo##@@++",
"..++++##oooooo########oooo######oooooo##############oo$$oo##++..",
"..++++##oooooo########oooo######oooooo##############oo$$oo##++..",
"..++++##oooo##############################@@##########$$##++++..",
"..++++##oooo##############################@@##########$$##++++..",
"..++++@@##########@@######################@@##########$$..++....",
"..++++@@##########@@######################@@##########$$..++....",
"++++@@@@@@@@####@@@@==##################==@@@@######@@$$..++....",
"++++@@@@@@@@####@@@@==##################==@@@@######@@$$..++....",
"++@@@@@@@@@@@@@@@@@@##============;;;;==##@@@@@@##@@@@$$++++++..",
"++@@@@@@@@@@@@@@@@@@##============;;;;==##@@@@@@##@@@@$$++++++..",
"++@@@@@@@@@@@@@@@@@@##############;;;;####@@@@@@@@@@..$$++++++++",
"++@@@@@@@@@@@@@@@@@@##############;;;;####@@@@@@@@@@..$$++++++++",
"++++@@@@@@@@@@@@@@##############==##==######@@@@@@..++$$++++++++",
"++++@@@@@@@@@@@@@@##############==##==######@@@@@@..++$$++++++++",
"..++@@@@@@@@@@@@@@##############==##==######@@@@..@@@@$$..++++++",
"..++@@@@@@@@@@@@@@##############==##==######@@@@..@@@@$$..++++++",
"..++++++@@@@@@@@@@##############==##==######@@..@@@@@@$$@@..++..",
"..++++++@@@@@@@@@@##############==##==######@@..@@@@@@$$@@..++..",
"..++++..++@@@@@@@@##########################++@@@@@@@@$$@@@@++..",
"..++++..++@@@@@@@@##########################++@@@@@@@@$$@@@@++..",
"....++++..++@@@@@@##########################@@@@@@@@@@$$@@@@@@..",
"....++++..++@@@@@@##########################@@@@@@@@@@$$@@@@@@..",
"....++++++..++++@@@@@@XX####################@@@@@@@@@@$$@@@@@@++",
"....++++++..++++@@@@@@XX####################@@@@@@@@@@$$@@@@@@++",
"..++++++++++++@@@@@@XXXXXXXX@@############@@@@@@@@@@@@@@@@@@@@++",
"..++++++++++++@@@@@@XXXXXXXX@@############@@@@@@@@@@@@@@@@@@@@++",
"..++++++++++++@@@@@@@@@@@@@@++@@@@XXXXXX@@@@++@@@@@@@@@@@@@@@@++",
"..++++++++++++@@@@@@@@@@@@@@++@@@@XXXXXX@@@@++@@@@@@@@@@@@@@@@++",
"....++++++++++++@@@@@@@@@@++++++@@@@@@@@@@++..++@@@@@@@@@@@@++++",
"....++++++++++++@@@@@@@@@@++++++@@@@@@@@@@++..++@@@@@@@@@@@@++++"
};
